<svg width="98" height="98" viewBox="0 0 98 98" fill="none" xmlns="http://www.w3.org/2000/svg">
<rect width="98" height="98" rx="49" fill="#EBFBF5"/>
<path d="M49.0537 72.9507C50.2617 72.9507 51.3355 72.2796 51.3355 70.6689V68.5213C58.5569 67.7427 63.0669 63.5012 63.0669 57.3268C63.0669 52.0114 59.8723 48.79 53.2415 47.3403L47.792 46.1054C44.3826 45.3538 42.7182 43.7967 42.7182 41.5149C42.7182 38.7767 45.0806 36.7901 48.7852 36.7901C51.7919 36.7901 53.8858 37.8102 56.2214 40.4142C57.4026 41.6491 58.3153 42.1055 59.5502 42.1055C61.0535 42.1055 62.2079 41.0585 62.2079 39.5015C62.2079 37.9982 61.322 36.3606 59.8186 34.8841C57.8321 33.0049 54.8523 31.7701 51.4966 31.3405V29.1124C51.4966 27.5285 50.4228 26.8574 49.1879 26.8574C47.9799 26.8574 46.9061 27.5016 46.9061 29.1124V31.26C39.9531 31.9043 35.5237 36.0653 35.5237 42.025C35.5237 47.2329 38.7182 50.696 44.839 52.0651L50.2886 53.3268C54.2617 54.2664 55.8992 55.6624 55.8992 58.0248C55.8992 61.0851 53.51 63.018 49.2416 63.018C46.047 63.018 43.3893 61.8099 40.9732 59.2059C39.6041 57.8368 38.8525 57.5415 37.8323 57.5415C36.1948 57.5415 34.9599 58.5885 34.9599 60.3871C34.9599 61.971 35.8726 63.6086 37.5102 65.0314C39.6578 66.9911 43.0135 68.1991 46.745 68.5481V70.6689C46.745 72.2796 47.8188 72.9507 49.0537 72.9507Z" fill="#3BDC9C"/>
</svg>
