<svg width="98" height="98" viewBox="0 0 98 98" fill="none" xmlns="http://www.w3.org/2000/svg">
<rect width="98" height="98" rx="49" fill="#ECF5FF"/>
<g clip-path="url(#clip0_1_177)">
<path d="M69.5 28.5C63.8333 22.8333 57 20 49 20C40.8788 20 34.0455 22.8333 28.5 28.5C22.8333 34.1667 20 41 20 49C20 57.1212 22.8333 63.9545 28.5 69.5C34.0455 75.1667 40.8788 78 49 78C57 78 63.8333 75.1667 69.5 69.5C75.1667 63.9545 78 57.1212 78 49C78 41 75.1667 34.1667 69.5 28.5ZM55.5455 40.6818C55.5455 38.2273 56.7576 37 59.1818 37C60.1212 37 60.9545 37.3788 61.6818 38.1364C62.4091 38.8333 62.7727 39.6818 62.7727 40.6818C62.7727 43.1061 61.5758 44.3182 59.1818 44.3182C56.7576 44.3182 55.5455 43.1061 55.5455 40.6818ZM41.3636 38.1364C42.0909 38.8333 42.4545 39.6818 42.4545 40.6818C42.4545 43.1061 41.2424 44.3182 38.8182 44.3182C36.3939 44.3182 35.1818 43.1061 35.1818 40.6818C35.1818 38.2273 36.3939 37 38.8182 37C39.8182 37 40.6667 37.3788 41.3636 38.1364ZM37.4545 63.0909C34.2727 59.8788 32.6818 56.0152 32.6818 51.5C37.0152 50.803 42.0455 50.3788 47.7727 50.2273C53.2879 50.1364 59.1212 50.5606 65.2727 51.5C65.2727 56.0152 63.7121 59.8788 60.5909 63.0909C57.3182 66.2727 53.4545 67.8636 49 67.8636C44.4242 67.8636 40.5758 66.2727 37.4545 63.0909Z" fill="#00A1FF"/>
</g>
<defs>
<clipPath id="clip0_1_177">
<rect width="58" height="58" fill="white" transform="translate(20 20)"/>
</clipPath>
</defs>
</svg>
