<svg width="98" height="98" viewBox="0 0 98 98" fill="none" xmlns="http://www.w3.org/2000/svg">
<rect width="98" height="98" rx="49" fill="#FEF6ED"/>
<path fill-rule="evenodd" clip-rule="evenodd" d="M41.75 46.5833C47.0812 46.5833 51.4167 42.2478 51.4167 36.9167C51.4167 31.5855 47.0812 27.25 41.75 27.25C36.4188 27.25 32.0833 31.5855 32.0833 36.9167C32.0833 42.2478 36.4188 46.5833 41.75 46.5833ZM61.0833 51.4167C65.0805 51.4167 68.3333 48.1638 68.3333 44.1667C68.3333 40.1695 65.0805 36.9167 61.0833 36.9167C57.0862 36.9167 53.8333 40.1695 53.8333 44.1667C53.8333 48.1638 57.0862 51.4167 61.0833 51.4167ZM73.1667 65.9167C73.1667 67.2507 72.0864 68.3333 70.75 68.3333H58.6667C58.6667 69.6673 57.5864 70.75 56.25 70.75H27.25C25.9136 70.75 24.8333 69.6673 24.8333 68.3333C24.8333 59.005 32.4241 51.4167 41.75 51.4167C46.4069 51.4167 50.6264 53.3089 53.6883 56.3612C55.7884 54.7372 58.3743 53.8333 61.0833 53.8333C67.7461 53.8333 73.1667 59.2539 73.1667 65.9167Z" fill="#F3A447"/>
</svg>
